<svg xmlns="http://www.w3.org/2000/svg" viewBox="0 0 315.59 306.26"><defs><style>.cls-1{fill:#5800ff;}.cls-2{fill:none;stroke:#00d7ff;stroke-miterlimit:10;stroke-width:5px;}.cls-3{fill:#0096ff;}</style></defs><g id="Layer_2" data-name="Layer 2"><g id="Layer_1-2" data-name="Layer 1"><path class="cls-1" d="M148.86,1.38,1.37,148.87a4.67,4.67,0,0,0,0,6.61L148.45,302.57a4.67,4.67,0,0,0,8-3.3l.41-294.58A4.67,4.67,0,0,0,148.86,1.38Z"/><path class="cls-2" d="M309.58,158l-139.28-.12a3.51,3.51,0,0,0-3.51,3.5l-.11,138.9a3.5,3.5,0,0,0,6,2.48L312.05,164A3.5,3.5,0,0,0,309.58,158Z"/><path class="cls-3" d="M309.58,147.16l-139.28.12a3.51,3.51,0,0,1-3.51-3.5l-.11-138.9a3.5,3.5,0,0,1,6-2.48l139.4,138.78A3.5,3.5,0,0,1,309.58,147.16Z"/></g></g></svg>